<svg height="512" viewBox="0 0 64 64" width="512" xmlns="http://www.w3.org/2000/svg"><g id="Mechanic-2" data-name="Mechanic"><path d="m28 36h2v2h-2z"/><path d="m34 36h2v2h-2z"/><path d="m61.142 16.01-3.906-.56a13.655 13.655 0 0 0 -.659-1.6l2.362-3.15a1 1 0 0 0 -.092-1.307l-4.24-4.24a1 1 0 0 0 -1.307-.093l-3.148 2.363a13.671 13.671 0 0 0 -1.6-.659l-.562-3.906a1 1 0 0 0 -.99-.858h-6a1 1 0 0 0 -.99.858l-.561 3.906a13.671 13.671 0 0 0 -1.6.659l-3.149-2.363a1 1 0 0 0 -1.307.093l-4.24 4.24a1 1 0 0 0 -.092 1.307l2.362 3.148a13.655 13.655 0 0 0 -.659 1.6l-3.906.56a1 1 0 0 0 -.858.992v6a1 1 0 0 0 .858.99l.072.01h-2.93v-15a1 1 0 0 0 -1-1h-16a1 1 0 0 0 -1 1v16a1 1 0 0 0 1 1h13.382l1.5 3-.777 1.553a1 1 0 0 0 .188 1.154l2.331 2.331a2.992 2.992 0 0 0 .376 5.962c.086 0 .167-.027.252-.035a8 8 0 0 0 2.092 3.693 7.839 7.839 0 0 0 1.656 1.235v1.457l-4.847 2.156a7 7 0 0 0 -4.153 6.394v6.1a1 1 0 0 0 1 1h24a1 1 0 0 0 1-1v-6.1a7 7 0 0 0 -4.153-6.394l-4.847-2.156v-1.443a7.973 7.973 0 0 0 3.75-4.941c.084.007.165.034.25.034a3 3 0 0 0 2.816-2h4.184a1 1 0 0 0 .99-.858l.561-3.906a13.671 13.671 0 0 0 1.6-.659l3.149 2.363a1 1 0 0 0 1.307-.093l4.24-4.24a1 1 0 0 0 .092-1.307l-2.362-3.148a13.655 13.655 0 0 0 .659-1.6l3.906-.56a1 1 0 0 0 .858-.992v-6a1 1 0 0 0 -.858-.99zm-53.142-6.01h14v14h-14zm15.9 18.553-1.282-2.553h14.382a3 3 0 0 1 3 3v2.586l-1.414 1.414h-.145a1 1 0 0 1 -.949-.684l-.544-1.632a1 1 0 0 0 -.65-.639 1.016 1.016 0 0 0 -.298-.045 1 1 0 0 0 -.6.2l-1.866 1.4a7.045 7.045 0 0 1 -4.2 1.4h-3.92l-2.2-2.2.678-1.356a1 1 0 0 0 .008-.891zm13.1-8.553a7.04 7.04 0 1 1 4.267 6.431 4.991 4.991 0 0 0 -2.811-2.189 6.993 6.993 0 0 1 -1.456-4.242zm-14 17a1 1 0 0 1 1-1v2a1 1 0 0 1 -1-1zm16 23h-14v-10.127l2-.889v5.016a1 1 0 0 0 1 1h8a1 1 0 0 0 1-1v-5.016l2 .889zm-4-10.382v3.382h-6v-3.382a3.947 3.947 0 0 0 6 0zm-3-.618a2 2 0 0 1 -2-2v-1.262a7.765 7.765 0 0 0 4 0v1.262a2 2 0 0 1 -2 2zm-11 5.9a4.992 4.992 0 0 1 2-3.983v9.083h-2zm22 0v5.1h-2v-9.083a4.992 4.992 0 0 1 2 3.983zm-5.035-16.286a6 6 0 0 1 -8.543 4.8 5.855 5.855 0 0 1 -1.665-1.17 6 6 0 0 1 -1.726-3.663 4.614 4.614 0 0 1 -.031-.581v-3h3.333a9.05 9.05 0 0 0 5.4-1.8l.757-.567.106.316a2.994 2.994 0 0 0 2.404 2.016v3.035a4.762 4.762 0 0 1 -.035.614zm2.035-.614v-2a1 1 0 0 1 0 2zm20-15.867-3.672.527a1 1 0 0 0 -.82.715 11.672 11.672 0 0 1 -.985 2.395 1 1 0 0 0 .078 1.08l2.218 2.956-3.012 3.013-2.956-2.219a1 1 0 0 0 -1.082-.077 11.664 11.664 0 0 1 -2.394.986 1 1 0 0 0 -.715.819l-.526 3.672h-3.318a2.988 2.988 0 0 0 -2.44-1.962l1.331-1.331a1 1 0 0 0 .293-.707v-3c0-.08-.02-.154-.024-.233a9.033 9.033 0 1 0 -6.028-4.767h-3.239c-.072-.206-.16-.422-.217-.622a1 1 0 0 0 -.82-.718l-3.672-.527v-4.266l3.672-.527a1 1 0 0 0 .82-.715 11.672 11.672 0 0 1 .985-2.395 1 1 0 0 0 -.078-1.08l-2.218-2.956 3.012-3.013 2.956 2.219a1 1 0 0 0 1.082.077 11.664 11.664 0 0 1 2.394-.986 1 1 0 0 0 .715-.819l.526-3.672h4.268l.526 3.672a1 1 0 0 0 .715.819 11.664 11.664 0 0 1 2.394.986 1 1 0 0 0 1.082-.077l2.956-2.219 3.012 3.013-2.219 2.956a1 1 0 0 0 -.078 1.08 11.672 11.672 0 0 1 .985 2.395 1 1 0 0 0 .82.715l3.673.527z"/><path d="m43 6h2v2h-2z"/><path d="m33.808 9.808h2v2h-2z" transform="matrix(.707 -.707 .707 .707 2.553 27.778)"/><path d="m30 19h2v2h-2z"/><path d="m43 32h2v2h-2z"/><path d="m52.192 28.192h2v2h-2z" transform="matrix(.707 -.707 .707 .707 -5.062 46.163)"/><path d="m56 19h2v2h-2z"/><path d="m52.192 9.808h2v2h-2z" transform="matrix(.707 -.707 .707 .707 7.938 40.778)"/><path d="m13 46h-2v-6h1a1 1 0 0 0 1-1v-2a1 1 0 0 0 -.03-.243l-1-4a1 1 0 0 0 -.97-.757h-2a1 1 0 0 0 -.97.757l-1 4a1 1 0 0 0 -.03.243v2a1 1 0 0 0 1 1h1v6h-2a2 2 0 0 0 -2 2v12a2 2 0 0 0 2 2h6a2 2 0 0 0 2-2v-12a2 2 0 0 0 -2-2zm-4-8.877.781-3.123h.438l.781 3.123v.877h-2zm2 22.877v-9h-2v9h-2v-12h6v12z"/><path d="m19 12h-8a1 1 0 0 0 -1 1v8a1 1 0 0 0 1 1h5a1 1 0 0 0 .707-.293l3-3a1 1 0 0 0 .293-.707v-5a1 1 0 0 0 -1-1zm-1 5.586-2.411 2.414h-3.589v-6h6z"/><path d="m14 28h2v2h-2z"/><path d="m18 28h2v2h-2z"/><path d="m10 28h2v2h-2z"/><path d="m2 20h2v2h-2z"/><path d="m2 16h2v2h-2z"/><path d="m2 12h2v2h-2z"/><path d="m26 12h2v2h-2z"/><path d="m14 4h2v2h-2z"/><path d="m18 4h2v2h-2z"/><path d="m10 4h2v2h-2z"/></g></svg>