<svg height="480pt" viewBox="-56 0 480 480" width="480pt" xmlns="http://www.w3.org/2000/svg" xmlns:xlink="http://www.w3.org/1999/xlink"><linearGradient id="a"><stop offset="0" stop-color="#fff33b"/><stop offset=".014" stop-color="#fee72e"/><stop offset=".042" stop-color="#fed51b"/><stop offset=".07" stop-color="#fdca10"/><stop offset=".1" stop-color="#fdc70c"/><stop offset=".4" stop-color="#f3903f"/><stop offset=".8" stop-color="#ed683c"/><stop offset="1" stop-color="#e93e3a"/></linearGradient><linearGradient id="b" gradientUnits="userSpaceOnUse" x1="184" x2="184" xlink:href="#a" y1="-24" y2="504.544"/><linearGradient id="c" gradientUnits="userSpaceOnUse" x1="200" x2="200" xlink:href="#a" y1="-24" y2="504.544"/><path d="m360 0h-352c-4.417969 0-8 3.582031-8 8v464c0 4.417969 3.582031 8 8 8h352c4.417969 0 8-3.582031 8-8v-464c0-4.417969-3.582031-8-8-8zm-344 16h16v448h-16zm32 0h304v229.878906l-31.039062 54.3125c-.601563 1.058594-.957032 2.234375-1.039063 3.449219l-1.832031 28.054687-48.683594 37.90625c-1.632812 1.273438-2.707031 3.132813-3 5.183594l-9.855469 68.800782-27.214843 20.414062h-181.335938zm304 448h-96l12.800781-9.601562c1.695313-1.269532 2.816407-3.164063 3.121094-5.261719l.277344-1.96875c.992187.183593 1.929687.382812 2.878906.617187 8.992187 2.175782 18.371094 2.175782 27.363281 0 6.535156-1.601562 13.359375-1.601562 19.894532 0 4.460937 1.140625 9.058593 1.679688 13.664062 1.597656v-16c-3.351562.066407-6.695312-.335937-9.9375-1.199218-8.984375-2.175782-18.363281-2.175782-27.351562 0-6.539063 1.601562-13.363282 1.601562-19.902344 0-1.296875-.304688-2.71875-.617188-4.335938-.894532l2.296875-16c.71875.152344 1.421875.3125 2.167969.496094 8.484375 2.058594 17.34375 2.058594 25.832031 0 2.988281-.804687 6.078125-1.179687 9.175781-1.113281 3.085938-.070313 6.167969.304687 9.152344 1.113281 4.210938 1.089844 8.550782 1.609375 12.902344 1.542969v-16c-3.089844.070313-6.171875-.304687-9.152344-1.113281-8.484375-2.058594-17.339844-2.058594-25.824218 0-6.027344 1.484375-12.324219 1.484375-18.351563 0-1.097656-.261719-2.304687-.527344-3.632813-.800782l2.289063-16c.464844.105469.929687.210938 1.40625.328126 7.988281 1.933593 16.320313 1.933593 24.304687 0 5.519532-1.351563 11.28125-1.351563 16.800782 0 3.96875 1.042968 8.058594 1.542968 12.160156 1.488281v-16c-2.835938.066406-5.664062-.273438-8.398438-1.015625-7.984374-1.929688-16.308593-1.929688-24.289062 0-2.386719.632812-4.84375.964844-7.3125.984375l34.769531-27.085938c1.800781-1.40625 2.914063-3.515625 3.0625-5.792969l1.953125-29.792968 16.214844-28.398438zm0 0" fill="url(#b)"/><path d="m208 336v-200h64v-16h-64v-40h-16v40h-64v16h64v200zm0 0" fill="url(#c)"/></svg>