<?xml version="1.0" encoding="iso-8859-1"?>
<!-- Generator: Adobe Illustrator 19.0.0, SVG Export Plug-In . SVG Version: 6.00 Build 0)  -->
<svg version="1.1" id="Layer_1" xmlns="http://www.w3.org/2000/svg" xmlns:xlink="http://www.w3.org/1999/xlink" x="0px" y="0px"
	 viewBox="0 0 432 432" style="enable-background:new 0 0 432 432;" xml:space="preserve">
<polygon style="fill:#70C1B3;" points="308,216 274.784,228.504 300.712,252.752 265.224,251.552 279.88,283.888 247.544,269.232 
	248.752,304.712 224.504,278.784 212,312 199.496,278.784 175.248,304.712 176.448,269.224 144.112,283.88 158.768,251.544 
	123.288,252.752 149.216,228.504 116,216 149.216,203.496 123.288,179.248 158.776,180.448 144.12,148.112 176.456,162.768 
	175.248,127.288 199.496,153.216 212,120 224.504,153.216 248.752,127.288 247.552,162.776 279.888,148.12 265.232,180.456 
	300.712,179.248 274.784,203.496 "/>
<path style="fill:#3F3F3F;" d="M140,193.272V64l35.032,35.032c3.184,3.184,7.496,4.968,12,4.968C196.4,104,204,96.4,204,87.032
	c0-4.504-1.792-8.816-4.968-12L124,0L48.968,75.032c-3.176,3.176-4.968,7.496-4.968,12C44,96.4,51.6,104,60.968,104
	c4.504,0,8.816-1.792,12-4.968L108,64v129.272C53.744,201.056,12,247.592,12,304c0,61.856,50.144,112,112,112s112-50.144,112-112
	C236,247.592,194.256,201.056,140,193.272z M124,384c-44.184,0-80-35.816-80-80s35.816-80,80-80s80,35.816,80,80
	S168.184,384,124,384z"/>
<path style="fill:#EE964B;" d="M420,176c0-63.64-53.072-114.88-117.368-111.872c-55.64,2.6-101.968,47.4-106.28,102.936
	c-4.688,60.36,38.552,111.472,95.648,119.664V360h-24c-8.84,0-16,7.16-16,16s7.16,16,16,16h24v24c0,8.84,7.16,16,16,16
	s16-7.16,16-16v-24h24c8.84,0,16-7.16,16-16s-7.16-16-16-16h-24v-73.272C378.256,278.944,420,232.408,420,176z M308,256
	c-44.184,0-80-35.816-80-80s35.816-80,80-80s80,35.816,80,80S352.184,256,308,256z"/>
<g>
</g>
<g>
</g>
<g>
</g>
<g>
</g>
<g>
</g>
<g>
</g>
<g>
</g>
<g>
</g>
<g>
</g>
<g>
</g>
<g>
</g>
<g>
</g>
<g>
</g>
<g>
</g>
<g>
</g>
</svg>
