<?xml version="1.0" encoding="iso-8859-1"?>
<!-- Generator: Adobe Illustrator 19.0.0, SVG Export Plug-In . SVG Version: 6.00 Build 0)  -->
<svg version="1.1" id="Capa_1" xmlns="http://www.w3.org/2000/svg" xmlns:xlink="http://www.w3.org/1999/xlink" x="0px" y="0px"
	 viewBox="0 0 480 480" style="enable-background:new 0 0 480 480;" xml:space="preserve">
<g>
	<g>
		<path d="M360,408h-80v-16h64c4.417,0.001,7.999-3.579,8-7.996c0-0.001,0-0.003,0-0.004V128c0.001-4.417-3.579-7.999-7.996-8
			c-0.001,0-0.003,0-0.004,0H136c-4.417-0.001-7.999,3.579-8,7.996c0,0.001,0,0.003,0,0.004v256c-0.001,4.417,3.579,7.999,7.996,8
			c0.001,0,0.003,0,0.004,0h64v16h-80c-35.329,0.04-63.96,28.671-64,64c-0.001,4.417,3.579,7.999,7.996,8c0.001,0,0.003,0,0.004,0
			h352c4.417,0.001,7.999-3.579,8-7.996c0-0.001,0-0.003,0-0.004C423.96,436.671,395.329,408.04,360,408z M144,376V136h192v240H144z
			 M72.664,464C76.6,440.92,96.587,424.03,120,424h88c4.417,0.001,7.999-3.579,8-7.996c0-0.001,0-0.003,0-0.004v-24h48v24
			c-0.001,4.417,3.579,7.999,7.996,8c0.001,0,0.003,0,0.004,0h88c23.413,0.03,43.4,16.92,47.336,40H72.664z"/>
	</g>
</g>
<g>
	<g>
		<rect x="160" y="152" width="120" height="16"/>
	</g>
</g>
<g>
	<g>
		<rect x="296" y="152" width="24" height="16"/>
	</g>
</g>
<g>
	<g>
		<rect x="160" y="184" width="80" height="16"/>
	</g>
</g>
<g>
	<g>
		<rect x="256" y="184" width="64" height="16"/>
	</g>
</g>
<g>
	<g>
		<rect x="160" y="216" width="24" height="16"/>
	</g>
</g>
<g>
	<g>
		<rect x="200" y="216" width="120" height="16"/>
	</g>
</g>
<g>
	<g>
		<rect x="200" y="312" width="120" height="16"/>
	</g>
</g>
<g>
	<g>
		<rect x="160" y="312" width="24" height="16"/>
	</g>
</g>
<g>
	<g>
		<rect x="240" y="280" width="80" height="16"/>
	</g>
</g>
<g>
	<g>
		<rect x="160" y="280" width="64" height="16"/>
	</g>
</g>
<g>
	<g>
		<rect x="296" y="248" width="24" height="16"/>
	</g>
</g>
<g>
	<g>
		<rect x="160" y="248" width="120" height="16"/>
	</g>
</g>
<g>
	<g>
		<rect x="160" y="344" width="72" height="16"/>
	</g>
</g>
<g>
	<g>
		<rect x="248" y="344" width="72" height="16"/>
	</g>
</g>
<g>
	<g>
		<path d="M136.004,0c-0.001,0-0.003,0-0.004,0H8C3.583-0.001,0.001,3.579,0,7.996C0,7.997,0,7.999,0,8v72
			c-0.001,4.417,3.579,7.999,7.996,8C7.997,88,7.999,88,8,88h68l21.602,28.801c1.51,2.015,3.881,3.2,6.398,3.199
			c0.533,0.001,1.064-0.053,1.586-0.16c3.024-0.609,5.427-2.905,6.172-5.898L118.25,88H136c4.417,0.001,7.999-3.579,8-7.996
			c0-0.001,0-0.003,0-0.004V8C144.001,3.583,140.421,0.001,136.004,0z M128,72h-16c-3.67,0.001-6.868,2.498-7.758,6.059
			l-3.93,15.695L86.398,75.199c-1.51-2.015-3.881-3.2-6.398-3.199H16V16h112V72z"/>
	</g>
</g>
<g>
	<g>
		<path d="M472.004,0c-0.001,0-0.003,0-0.004,0H344c-4.417-0.001-7.999,3.579-8,7.996c0,0.001,0,0.003,0,0.004v72
			c-0.001,4.417,3.579,7.999,7.996,8c0.001,0,0.003,0,0.004,0h17.75l6.492,25.941c0.745,2.993,3.148,5.29,6.172,5.898
			c0.522,0.107,1.053,0.161,1.586,0.16c2.518,0.001,4.889-1.185,6.398-3.199L404,88h68c4.417,0.001,7.999-3.579,8-7.996
			c0-0.001,0-0.003,0-0.004V8C480.001,3.583,476.421,0.001,472.004,0z M464,72h-64c-2.518-0.001-4.889,1.185-6.398,3.199
			l-13.914,18.555l-3.93-15.695c-0.89-3.56-4.088-6.058-7.758-6.059h-16V16h112V72z"/>
	</g>
</g>
<g>
	<g>
		<rect x="368" y="32" width="48" height="16"/>
	</g>
</g>
<g>
	<g>
		<rect x="432" y="32" width="16" height="16"/>
	</g>
</g>
<g>
	<g>
		<rect x="32" y="32" width="24" height="16"/>
	</g>
</g>
<g>
	<g>
		<rect x="72" y="32" width="40" height="16"/>
	</g>
</g>
<g>
</g>
<g>
</g>
<g>
</g>
<g>
</g>
<g>
</g>
<g>
</g>
<g>
</g>
<g>
</g>
<g>
</g>
<g>
</g>
<g>
</g>
<g>
</g>
<g>
</g>
<g>
</g>
<g>
</g>
</svg>
