<svg id="Layer_3" enable-background="new 0 0 64 64" height="512" viewBox="0 0 64 64" width="512" xmlns="http://www.w3.org/2000/svg"><g><path d="m13 17h2v2h-2z"/><path d="m21 17h2v2h-2z"/><path d="m18 27c1.811 0 3.483-.982 4.367-2.564l-1.746-.975c-.53.949-1.535 1.539-2.621 1.539s-2.091-.591-2.622-1.541l-1.746.977c.885 1.582 2.558 2.564 4.368 2.564z"/><path d="m62 1h-60c-.553 0-1 .447-1 1v34h.04c-.012.138-.04.273-.04.414v16.586c0 .553.447 1 1 1h1v4c0 .314.148.611.4.8l3.6 2.7v.5c0 .553.447 1 1 1h21c.553 0 1-.447 1-1v-22.586l.414-.414h31.586c.553 0 1-.447 1-1v-36c0-.553-.447-1-1-1zm-57 56.5v-3.5h2v5zm4-4.5v-10h-2v9h-4v-15.586c0-.645.251-1.251.707-1.707s1.063-.707 1.707-.707h7.172l-2.293 2.293c-.208.208-.313.496-.29.789.024.293.177.561.416.731l6.581 4.701v18.486h-8zm5.506-18.092c.524.955 1.416 1.67 2.494 1.95v3.199l-4.458-3.185zm4.112-21.908-.724-1.447c-.128-.257-.36-.445-.638-.52-.276-.072-.572-.023-.812.135l-2.747 1.832h-4.626c.487-3.388 3.408-6 6.929-6h4c3.521 0 6.442 2.612 6.929 6zm-8.618 6c.553 0 1-.447 1-1v-3h3c.197 0 .391-.059.555-.168l2.058-1.372.493.987c.169.339.515.553.894.553h7v3c0 .266.105.52.293.707s.442.293.707.293h.001.001c.267 0 .517.104.705.292.189.188.293.439.293.71 0 .267-.104.518-.293.706-.188.188-.438.292-.705.292h-.001-.001c-.265 0-.52.105-.707.293s-.293.441-.293.707c0 3.859-3.141 7-7 7s-7-3.141-7-7c0-.552-.447-.999-.999-1s-1.001-.45-1.001-1.002c0-.55.447-.997 1-.998zm13.458 17.872-4.458 3.185v-3.199c1.078-.28 1.97-.995 2.494-1.95zm-5.458-5.872c.688 0 1.356-.086 2-.233v2.233c0 1.103-.897 2-2 2s-2-.897-2-2v-2.233c.644.147 1.312.233 2 .233zm10.293 7.293c-.188.187-.293.441-.293.707v22h-9v-18.486l6.581-4.701c.239-.171.392-.438.416-.731.023-.293-.082-.581-.29-.789l-1.293-1.293 9.586-9.586 3.586 3.586zm8.121-13.293 3.793-3.793c.134-.134.312-.207.5-.207h.586c.188 0 .366.073.5.207s.207.312.207.5v.586c0 .188-.073.366-.207.5l-3.793 3.793zm24.586 12h-28.586l7.293-7.293c.391-.391.391-1.023 0-1.414l-.293-.293 3.793-3.793c.512-.512.793-1.191.793-1.914v-.586c0-.375-.079-.736-.223-1.07l11.93-11.93-1.414-1.414-11.93 11.93c-.334-.144-.695-.223-1.07-.223h-.586c-.723 0-1.402.281-1.914.793l-3.793 3.793-.293-.293c-.391-.391-1.023-.391-1.414 0l-10.293 10.293-1-1v-2.528c2.721-1.357 4.665-4.049 4.961-7.214.432-.145.828-.389 1.16-.721.567-.566.879-1.319.879-2.125 0-.802-.312-1.555-.879-2.121-.322-.321-.704-.561-1.121-.708v-2.169h1c.553 0 1-.447 1-1 0-4.963-4.037-9-9-9h-4c-4.963 0-9 4.037-9 9 0 .553.447 1 1 1h1v2.171c-1.164.412-2 1.524-2 2.827 0 1.318.854 2.441 2.039 2.844.295 3.166 2.239 5.859 4.961 7.216v1.942h-8.586c-.871 0-1.702.254-2.414.721v-29.721h58z"/></g></svg>